<svg width="246" height="20" viewBox="0 0 246 20" fill="none" xmlns="http://www.w3.org/2000/svg">
<path d="M2.30476 5.85875V8.78987H4.84137C6.02144 8.78987 6.97656 9.14285 7.71021 9.85228C8.44386 10.5617 8.81068 11.5099 8.81068 12.7003C8.81068 13.8423 8.44732 14.7732 7.72059 15.4861C6.99387 16.2025 6.05258 16.5589 4.89674 16.5589H0V3.87582H7.7898V5.85875H2.30476ZM2.30476 14.5795H4.48493C5.11476 14.5795 5.60271 14.4133 5.94877 14.0777C6.29483 13.7454 6.46786 13.2852 6.46786 12.7003C6.46786 12.1155 6.2879 11.6483 5.93146 11.2988C5.57502 10.9493 5.08016 10.7728 4.44687 10.7728H2.3013V14.5795H2.30476Z" fill="white"/>
<path d="M18.2062 12.1847H15.6142V16.5624H13.3094V3.87582H18.2062C19.3966 3.87582 20.369 4.25649 21.12 5.01782C21.8709 5.77915 22.2447 6.7758 22.2447 8.00086C22.2447 9.22937 21.8709 10.2329 21.12 11.0116C20.369 11.7937 19.3966 12.1847 18.2062 12.1847ZM17.8117 5.85875H15.6142V10.181H17.7771C18.445 10.181 18.964 9.98378 19.3412 9.59273C19.715 9.19822 19.9053 8.66875 19.9053 8.00086C19.9053 7.3468 19.7185 6.82425 19.3412 6.43667C18.964 6.05254 18.4553 5.85875 17.8117 5.85875Z" fill="white"/>
<path d="M32.3566 5.77225L34.2323 3.89661C35.3155 4.18384 36.2637 4.72369 37.0734 5.52309C38.3123 6.7516 38.9249 8.2881 38.9145 10.1326C38.9041 12.0152 38.2847 13.5932 37.0561 14.8667C35.8276 16.1402 34.2634 16.7769 32.3566 16.7769C30.4499 16.7769 28.8822 16.1402 27.6502 14.8667C26.4183 13.5932 25.8023 12.0152 25.8023 10.1326C25.8023 8.29849 26.4217 6.76198 27.6606 5.52309C28.46 4.72369 29.3978 4.18384 30.4845 3.89661L32.3566 5.77225ZM29.3736 13.3648C30.1592 14.2334 31.1558 14.6694 32.3566 14.6694C33.5609 14.6694 34.5576 14.2369 35.3501 13.3752C36.1425 12.5135 36.5371 11.4303 36.5371 10.1326C36.5371 8.89371 36.1425 7.85899 35.3501 7.02499C34.5576 6.19098 33.5609 5.77571 32.3566 5.77571C31.1524 5.77571 30.1557 6.19444 29.3632 7.02499C28.5708 7.85899 28.1762 8.89371 28.1762 10.1326C28.1762 11.4269 28.5742 12.5066 29.3736 13.3648Z" fill="white"/>
<path d="M45.8288 16.5624H43.524V3.87582H45.8288V9.25359H51.6357V3.87582H53.9231V16.5624H51.6357V11.2365H45.8288V16.5624Z" fill="white"/>
<path d="M61.6022 16.5624H59.2974V3.87582H61.6022V9.25359H67.409V3.87582H69.6965V16.5624H67.409V11.2365H61.6022V16.5624Z" fill="white"/>
<path d="M82.1857 9.25359L77.3616 16.5624H75.0741V3.87582H77.3789V11.2019L77.2543 13.1675H77.2889C77.6938 12.3439 78.0502 11.6829 78.3617 11.1846L83.1512 3.87582H85.4386V16.5624H83.1512V9.25359L83.2757 7.28797H83.2411C82.8466 8.09775 82.4937 8.75527 82.1857 9.25359Z" fill="white"/>
<path d="M98.6202 3.87582H100.925V14.5795H102.427V19.0644H100.371V16.5624H90.8304V3.87582H93.1351V14.5795H98.6202V3.87582V3.87582Z" fill="white"/>
<path d="M113.843 3.87582H116.345L112.753 9.91457V9.94917L116.56 16.5589H113.95L110.86 11.022H109.216V16.5589H106.912V3.87582H109.216V9.03904H110.86L113.843 3.87582Z" fill="white"/>
<path d="M127.727 9.25359L122.903 16.5624H120.616V3.87582H122.92V11.2019L122.796 13.1675H122.83C123.235 12.3439 123.592 11.6829 123.903 11.1846L128.693 3.87582H130.98V16.5624H128.693V9.25359L128.817 7.28797H128.783C128.388 8.09775 128.035 8.75527 127.727 9.25359Z" fill="white"/>
<path d="M138.59 13.1675C138.995 12.3439 139.351 11.6829 139.663 11.1846L144.452 3.87584H146.74V16.5624H144.452V9.25361L144.577 7.28799H144.542C144.148 8.09777 143.798 8.75182 143.487 9.25361L138.663 16.5624H136.375V3.87584H138.68V11.2019L138.555 13.1675H138.59V13.1675ZM145.182 1.55378H137.929V-3.05176e-05H145.182V1.55378Z" fill="white"/>
<path d="M169.496 3.66125C171.32 3.66125 172.846 4.28416 174.078 5.52998C175.31 6.77579 175.926 8.30884 175.926 10.1291C175.926 11.9978 175.31 13.5759 174.078 14.8528C172.846 16.1332 171.317 16.7735 169.496 16.7735C167.863 16.7735 166.468 16.2509 165.306 15.2093C164.143 14.1676 163.444 12.8422 163.205 11.233H161.205V16.5554H158.9V3.87581H161.205V9.25358H163.171C163.361 7.6444 164.046 6.31207 165.226 5.25313C166.406 4.19419 167.828 3.66125 169.496 3.66125ZM166.638 13.3648C167.413 14.2334 168.365 14.6694 169.496 14.6694C170.628 14.6694 171.587 14.2334 172.372 13.3578C173.158 12.4823 173.552 11.4061 173.552 10.1326C173.552 8.90752 173.158 7.87626 172.372 7.04226C171.587 6.20825 170.628 5.79298 169.496 5.79298C168.365 5.79298 167.41 6.21172 166.628 7.04226C165.849 7.87626 165.458 8.90752 165.458 10.1326C165.458 11.4165 165.852 12.4962 166.638 13.3648Z" fill="white"/>
<path d="M185.149 16.5624H180.557V3.87582H185.076C186.256 3.87582 187.204 4.16305 187.924 4.74097C188.644 5.31889 189.004 6.11829 189.004 7.14263C189.004 7.73785 188.865 8.27424 188.592 8.75181C188.319 9.22937 187.941 9.59619 187.467 9.8592V9.8938C188.135 10.0841 188.644 10.4613 188.994 11.0185C189.343 11.5791 189.52 12.1986 189.52 12.8768C189.52 14.0811 189.101 14.9947 188.27 15.6176C187.44 16.2509 186.398 16.5624 185.149 16.5624ZM186.665 7.43332C186.665 6.9696 186.526 6.58893 186.253 6.29132C185.966 6.00409 185.568 5.86221 185.055 5.86221H182.858V9.0598H185.09C185.578 9.0598 185.962 8.90753 186.242 8.603C186.526 8.29847 186.665 7.90742 186.665 7.43332ZM186.685 14.0604C187.007 13.7281 187.166 13.2852 187.166 12.7384C187.166 12.202 187.004 11.766 186.675 11.4268C186.346 11.0877 185.896 10.9181 185.325 10.9181H182.861V14.5795H185.325C185.9 14.5795 186.35 14.4064 186.685 14.0604Z" fill="white"/>
<path d="M196.476 9.18438H200.746V11.1673H196.476V14.5795H202.051V16.5624H194.171V3.87582H201.763V5.85875H196.476V9.18438V9.18438Z" fill="white"/>
<path d="M215.931 3.87582V16.5624H213.626V5.85875H210.287V7.37795C210.287 10.4994 209.899 12.818 209.124 14.3372C208.349 15.8564 207.093 16.6454 205.355 16.7043V14.5968C206.307 14.4653 207.003 13.832 207.435 12.6934C207.871 11.5549 208.086 9.77268 208.086 7.34334V3.87582H215.931Z" fill="white"/>
<path d="M228.42 9.25359L223.596 16.5624H221.309V3.87582H223.613V11.2019L223.489 13.1675H223.523C223.928 12.3439 224.285 11.6829 224.596 11.1846L229.386 3.87582H231.673V16.5624H229.386V9.25359L229.51 7.28797H229.476C229.081 8.09775 228.728 8.75527 228.42 9.25359Z" fill="white"/>
<path d="M241.961 12.1847H239.369V16.5624H237.065V3.87582H241.961C243.152 3.87582 244.124 4.25649 244.875 5.01782C245.626 5.77915 246 6.7758 246 8.00086C246 9.22937 245.626 10.2329 244.875 11.0116C244.124 11.7937 243.152 12.1847 241.961 12.1847ZM241.57 5.85875H239.373V10.181H241.536C242.204 10.181 242.723 9.98378 243.1 9.59273C243.477 9.20168 243.664 8.66875 243.664 8.00086C243.664 7.3468 243.477 6.82425 243.1 6.43667C242.723 6.05254 242.211 5.85875 241.57 5.85875Z" fill="white"/>
</svg>
