<svg width="317" height="181" viewBox="0 0 317 181" fill="none" xmlns="http://www.w3.org/2000/svg">
<path d="M309.246 180.337C309.408 179.53 309.57 178.727 309.64 178.375C308.906 177.102 308.014 176.162 307.801 175.086C306.297 167.504 302.36 161.074 298.108 154.867C295.299 150.765 291.946 147.029 288.761 143.19C286.275 140.196 283.799 137.177 281.094 134.383C277.881 131.062 274.423 127.973 271.083 124.775C269.753 123.499 268.458 122.188 267.13 120.908C265.467 119.305 263.784 117.717 261.914 115.939C260.492 117.984 259.022 119.81 257.866 121.816C255.113 126.598 252.583 131.503 249.824 136.281C248.189 139.113 247.792 142.272 247.058 145.336C246.512 147.622 245.474 149.603 244.153 151.467C243.182 152.839 241.086 153.21 239.534 152.426C238.089 151.699 237.413 149.588 237.896 147.765C239.067 143.365 240.261 138.967 241.277 134.529C242.271 130.189 242.991 125.785 243.95 121.435C245.334 115.146 246.833 108.882 248.265 102.602C248.344 102.252 248.274 101.868 248.065 101.411C246.804 104.16 245.547 106.907 244.284 109.656C240.743 117.371 237.213 125.09 233.641 132.789C233.371 133.373 232.816 133.827 232.39 134.338C232.257 134.497 232.003 134.624 231.981 134.789C231.498 138.062 229.403 140.504 227.634 143.088C226.815 144.285 225.758 145.374 224.631 146.295C223.046 147.584 220.573 146.206 219.7 144.012C217.966 139.669 219.043 135.503 220.122 131.297C223.126 119.568 226.177 107.85 229.101 96.0992C230.352 91.0638 231.108 85.895 232.492 80.9008C234.032 75.3541 236.029 69.9345 237.848 64.4641C237.956 64.1434 238.238 63.8767 238.61 63.3401C238.686 64.2831 238.737 64.9403 238.823 65.9976C239.378 64.6324 239.959 63.8291 239.543 62.5496C239.324 61.8765 240.143 60.797 240.626 59.9811C241.194 59.0222 242.048 59.4858 242.931 59.4223C245.211 59.2572 245.071 60.7684 245.623 62.0194C245.811 62.4448 246.7 62.5242 246.998 62.9496C247.82 64.118 248.83 65.3054 249.163 66.6326C249.906 69.5916 250.541 72.6269 250.732 75.6589C250.916 78.5608 250.522 81.504 248.684 84.009C247.709 85.3393 246.189 85.4949 245.398 84.0471C244.645 82.6692 244.118 81.0722 243.909 79.5165C243.518 76.6114 243.442 73.6651 243.21 70.7346C243.188 70.4425 242.998 70.1631 242.521 69.7885C241.378 73.0301 240.153 76.2463 239.115 79.5228C238.08 82.793 237.162 86.1077 236.324 89.4318C235.568 92.4226 234.99 95.4547 234.333 98.4677C233.413 102.681 232.587 106.916 231.546 111.098C230.26 116.266 228.701 121.369 227.444 126.541C226.894 128.801 226.802 131.173 226.685 133.646C227.421 132.535 228.282 131.487 228.876 130.306C232.362 123.347 235.857 116.39 239.21 109.367C242.334 102.827 245.195 96.1627 248.332 89.6287C251.91 82.1834 254.523 74.4652 256.282 66.3786C258.241 57.3554 260.641 48.4274 262.873 39.4646C264.463 33.0734 266.051 26.6791 267.734 20.3133C268.089 18.9639 268.972 17.7606 269.404 16.424C269.791 15.227 269.896 13.9412 270.112 12.6903C270.143 12.5029 270.013 12.2648 270.083 12.1092C271.782 8.43583 272.318 4.13695 275.722 1.3938C276.503 0.765162 277.538 0.457192 278.455 0H279.408C279.77 0.273045 280.16 0.517516 280.494 0.825486C282.516 2.69235 284.189 4.66399 284.202 7.70877C284.221 12.1346 282.554 16.097 281.03 20.0657C278.392 26.9299 275.449 33.6735 272.734 40.5091C269.502 48.6497 266.372 56.8315 263.219 65.0038C262.228 67.5724 261.104 70.1187 260.403 72.7697C259.488 76.2272 258.926 79.7768 258.225 83.2883C257.837 85.2346 257.479 87.184 257.066 89.3398C258.603 88.8667 259.828 88.6 260.962 88.1174C267.899 85.1584 274.823 82.1739 281.729 79.1482C285.447 77.5195 289.126 75.8018 292.806 74.0905C295.632 72.7761 298.559 71.6204 301.21 70.0139C304.595 67.9597 307.681 65.4261 311.024 63.2925C312.612 62.2797 314.488 61.7209 316.234 60.9589V70.4838C316.079 70.4996 315.907 70.4774 315.771 70.5377C312.497 72.049 309.233 73.5857 305.954 75.0874C303.744 76.1003 301.188 76.659 299.356 78.129C293.251 83.028 287.329 88.165 281.488 93.3815C278.738 95.8357 276.271 98.617 273.795 101.357C271.315 104.097 268.981 106.97 266.559 109.815C266.972 110.253 267.242 110.571 267.543 110.86C272.287 115.406 277.068 119.918 281.77 124.505C284.116 126.795 286.32 129.233 288.599 131.589C296.492 139.742 304.039 148.178 309.878 157.979C312.148 161.789 314.17 165.735 315.323 170.06C315.644 171.26 315.926 172.466 316.228 173.669V173.987C315.825 174.743 315.285 175.463 315.056 176.27C314.847 177.006 315.11 177.879 314.894 178.613C314.729 179.175 314.142 179.61 313.745 180.102C313.618 179.997 313.491 179.892 313.364 179.788C313.532 179.172 313.704 178.559 313.872 177.943C313.767 177.876 313.662 177.806 313.561 177.74C312.881 178.527 312.205 179.315 311.526 180.102C311.43 180.032 311.335 179.959 311.243 179.889C311.278 179.499 311.313 179.111 311.351 178.699C310.811 179.302 310.348 179.819 309.881 180.334H309.246V180.337ZM279.992 87.0284C279.414 87.2951 278.401 87.7872 277.366 88.2317C274.252 89.5684 271.144 90.9114 268.004 92.1877C267.2 92.5147 266.689 93.7148 265.413 92.9592C265.14 92.7973 264.222 93.918 263.511 94.2673C261.46 95.2706 259.377 96.2167 257.275 97.1089C256.151 97.5851 255.913 98.1439 256.755 99.09C258.536 101.093 260.361 103.062 262.035 105.151C262.695 105.976 263.047 105.811 263.597 105.195C264.613 104.056 265.616 102.903 266.686 101.817C266.918 101.582 267.407 101.601 267.778 101.503C268.489 101.049 269.051 100.309 269.607 99.5631C271.21 97.4137 273.039 95.4674 274.509 93.1783C276.043 90.7876 278.313 88.8699 279.995 87.0316L279.992 87.0284ZM258.174 112.171C256.821 110.72 255.529 109.329 254.234 107.942C254.04 108.053 253.843 108.161 253.65 108.272C252.862 112.777 252.075 117.279 251.287 121.785C251.411 121.826 251.538 121.867 251.662 121.912C253.812 118.695 255.964 115.476 258.174 112.171V112.171ZM270.617 32.7718C273.804 24.6217 277.941 16.7415 278.316 7.69924C274.011 15.5064 273.255 24.4185 270.617 32.7718Z" fill="#6E5D6D"/>
<path d="M0.00630411 77.4685C1.63505 75.3794 3.01298 73.0109 4.94334 71.2552C9.21365 67.3722 14.1221 64.337 19.1988 61.5716C22.596 59.7238 25.8313 57.587 29.2317 55.7424C32.8067 53.8057 36.4737 52.0436 40.1249 50.2497C44.9477 47.8749 49.8021 45.5635 54.6058 43.1537C55.0662 42.922 55.5583 42.1727 55.5425 41.6774C55.3615 35.5656 55.0789 29.457 54.8535 23.3452C54.8217 22.469 54.9011 21.58 55.0122 20.7069C55.1837 19.3639 55.4155 18.0304 55.6409 16.6969C55.7075 16.3064 55.8504 15.9254 55.9584 15.5412C56.1489 15.5571 56.3394 15.5698 56.5299 15.5857C56.6632 17.1509 56.7934 18.713 56.9267 20.2783C57.4188 18.313 56.7204 16.1127 58.3904 14.3538C60.4604 22.6404 60.9208 31.1016 61.0796 39.9089C63.1337 39.039 64.8228 38.2961 66.5309 37.6039C71.1537 35.7244 75.7954 33.8988 80.4054 31.9938C85.4441 29.911 90.4033 27.6314 95.4896 25.682C100.081 23.9231 104.811 22.5229 109.459 20.9101C112.193 19.9608 114.844 18.7479 117.613 17.9256C121.562 16.7541 125.569 15.7444 129.589 14.83C133.116 14.03 136.685 13.4172 140.25 12.7981C141.803 12.5282 143.384 12.4361 144.958 12.3028C146.705 12.1567 148.594 13.7442 148.191 15.3349C147.829 16.7636 147.102 18.4146 145.993 19.2623C144.25 20.5989 142.114 21.4943 140.037 22.307C137.726 23.2119 135.253 23.704 132.935 24.5962C131.465 25.1613 130.189 24.6756 129.312 23.8882C128.592 23.2373 128.515 21.8689 128.058 20.5386C126.826 20.8243 125.067 21.0974 123.394 21.6403C114.381 24.5644 105.259 27.2219 96.423 30.6159C85.787 34.702 75.3954 39.4327 64.9054 43.8967C63.9529 44.3031 63.0131 44.7603 62.1368 45.3063C61.759 45.5413 61.3431 46.0429 61.3145 46.4493C61.1304 49.2274 61.1113 52.0214 60.9113 54.7963C60.562 59.6063 60.1588 64.4132 59.7048 69.2169C59.3333 73.1697 58.8603 77.1129 58.3745 81.5642C59.2317 80.5895 59.7842 79.9259 60.3684 79.2973C65.1848 74.1253 70.125 69.1248 76.9098 66.4674C80.0499 65.2355 83.2788 64.5211 86.622 64.1242C94.1244 63.2321 98.6773 67.4484 102.071 73.2395C105.615 79.2814 106.338 86.006 105.402 92.8416C105.002 95.7785 103.871 98.6073 103.211 101.516C102.246 105.786 100.477 109.694 98.2169 113.406C95.9531 117.12 93.7243 120.864 91.3717 124.521C90.8097 125.398 89.7334 125.928 89.0381 126.744C88.0856 127.861 87.3776 129.201 86.3743 130.265C82.9232 133.922 79.58 137.723 75.8304 141.056C71.5283 144.879 66.8992 148.356 62.2733 151.794C60.3398 153.229 58.0475 154.182 55.7425 155.448C55.571 153.293 58.8507 154.283 58.3777 152.102C56.2505 152.832 54.047 152.991 51.9643 152.2C53.2025 151.651 54.4407 151.099 55.6821 150.556C55.9044 150.457 56.1425 150.394 56.3711 150.314C56.2219 150.137 56.0758 149.959 55.9234 149.784C55.7964 149.641 55.6631 149.508 55.3456 149.175C57.0537 148.063 58.7079 147.108 60.2318 145.971C63.5116 143.526 66.7278 141.002 69.9567 138.491C71.5378 137.262 73.2618 136.157 74.6175 134.71C76.8209 132.354 78.8783 129.839 80.8118 127.252C84.0947 122.858 87.4729 118.505 90.378 113.866C94.5562 107.202 97.8645 100.077 99.0043 92.1939C99.7536 86.9966 99.4265 81.7261 97.0676 76.9891C94.68 72.1918 91.432 68.9343 84.9361 70.09C79.5673 71.0456 75.0874 73.5983 70.8933 76.8812C65.8483 80.8276 61.832 85.7551 57.8665 90.7049C56.9775 91.8129 56.5013 93.3941 56.2346 94.8291C55.5266 98.62 55.0853 102.455 54.4471 106.259C54.0629 108.558 53.5041 110.828 53.0438 113.117C52.285 116.885 51.596 120.67 50.7737 124.423C50.1196 127.41 49.3767 130.382 48.5576 133.329C46.7002 139.999 44.9127 146.695 42.8236 153.296C41.5187 157.42 39.9122 161.474 38.0898 165.399C36.7499 168.282 34.9402 170.968 33.1654 173.622C31.5621 176.019 29.0952 177.352 26.2853 176.73C23.4787 176.111 21.5388 174.174 20.6053 171.237C18.7798 165.497 18.9068 159.617 19.8338 153.867C20.6022 149.102 22.3325 144.479 23.7771 139.837C26.3996 131.42 30.6255 123.731 35.0006 116.146C38.185 110.628 41.6362 105.259 45.062 99.8868C46.9733 96.8897 49.2211 94.0989 51.0213 91.0414C51.7706 89.7715 51.8151 88.0538 52.0564 86.5203C52.7294 82.2849 53.4597 78.0559 53.9359 73.7983C54.5011 68.7438 54.8598 63.6639 55.2345 58.5903C55.4377 55.8535 55.4885 53.1072 55.5996 50.3672C55.6218 49.8084 55.6028 49.2465 55.6028 48.3733C52.2564 50.0656 49.1354 51.5864 46.0684 53.2088C38.8422 57.0346 31.4859 60.6509 24.4851 64.8513C19.3925 67.9088 14.7793 71.76 9.96293 75.2747C9.28984 75.7636 8.68026 76.3383 7.71507 77.1479C10.582 77.3415 13.0776 77.5066 15.5762 77.6749C15.6175 77.913 15.6588 78.1512 15.7001 78.3893C14.5984 79.0338 13.322 79.5037 12.4362 80.3704C11.3472 81.4372 10.1344 81.9865 8.7247 82.3611C6.24507 83.0215 1.05086 82.1802 -4.57764e-05 79.3608V77.4558L0.00630411 77.4685ZM49.691 102.998C49.4878 102.922 49.2846 102.843 49.0814 102.767C47.5924 105.129 46.0144 107.443 44.627 109.866C41.3409 115.612 38.0326 121.353 34.9561 127.214C32.9972 130.947 31.2478 134.821 29.7524 138.764C28.2062 142.844 26.8409 147.025 25.8345 151.267C24.8185 155.544 24.8439 159.979 25.1074 164.373C25.19 165.77 25.3963 167.186 25.7805 168.523C25.9901 169.25 26.6981 169.834 27.1838 170.485C27.7744 170.044 28.5713 169.723 28.9237 169.139C30.4826 166.554 32.2225 164.014 33.3274 161.233C35.753 155.121 38.0104 148.93 40.0043 142.666C41.9981 136.399 43.7126 130.036 45.3064 123.654C46.497 118.879 47.2876 114.006 48.2877 109.183C48.7163 107.113 49.2243 105.062 49.6942 102.998H49.691Z" fill="#6E5D6D"/>
<path d="M158.63 55.5807C160.738 59.2414 162.386 62.6386 162.719 66.8645C164.541 66.5375 166.297 66.1469 168.075 65.9183C177.321 64.7246 186.268 62.2386 195.243 59.8415C199.066 58.8192 202.939 57.9524 206.829 57.219C208.927 56.8221 211.105 56.8507 213.493 56.9872C212.845 57.3365 212.21 57.7175 211.54 58.0191C211.359 58.1016 211.032 57.8635 210.842 57.9397C210.394 58.1207 209.984 58.4032 209.562 58.6477C210.054 58.743 210.55 58.9366 211.038 58.9144C212.14 58.8668 213.236 58.6414 214.331 58.6572C214.633 58.6604 214.928 59.2573 215.096 59.7589C216.395 60.1082 217.922 57.9937 219.284 59.8288C218.76 60.3844 218.376 60.9019 217.887 61.2829C217.306 61.7338 216.645 62.0894 215.988 62.4196C215.871 62.4799 215.439 62.2418 215.423 62.1084C215.395 61.8925 215.591 61.648 215.75 61.2893C214.032 61.375 212.305 61.4639 210.397 61.5623C210.756 62.1433 210.969 62.483 211.385 63.1561C198.285 66.0136 185.417 68.8202 172.872 71.557C173.428 72.8873 174.139 74.2938 174.577 75.7829C174.746 76.3607 174.501 77.3735 174.069 77.726C173.647 78.0689 172.669 78.0308 172.066 77.8053C169.202 76.7386 166.383 75.5511 163.424 74.3573C162.963 82.7138 162.522 90.6956 162.065 98.9282C163.525 98.4933 164.98 98.0932 166.415 97.6297C175.841 94.5817 185.255 91.4894 194.694 88.4763C197.462 87.5937 200.269 86.7714 203.114 86.1904C205.406 85.7236 207.775 85.5712 210.121 85.4538C211.597 85.3808 213.093 85.6157 214.575 85.7649C214.842 85.7903 215.087 86.0602 215.287 86.5618C214.683 86.5206 214.083 86.4825 213.347 86.4317C213.229 87.0349 213.143 87.7239 212.947 88.3779C212.832 88.7557 212.616 89.2002 212.308 89.4066C208.829 91.7052 205.025 93.1022 200.942 94.0674C194.77 95.5279 188.69 97.382 182.607 99.1854C178.324 100.455 174.073 101.846 169.856 103.319C167.202 104.246 164.672 105.535 162.011 106.453C160.027 107.135 160.385 108.847 160.074 110.209C159.128 114.317 158.331 118.461 157.464 122.591C157.188 123.902 156.883 125.21 156.528 126.804C170.256 122.248 182.94 115.46 196.65 111.415C196.726 111.58 196.802 111.749 196.878 111.914C195.748 112.454 194.621 112.993 193.427 113.565C195.345 115.657 197.44 112.958 199.367 113.584C199.402 113.733 199.437 113.882 199.469 114.028C198.856 114.349 198.193 114.6 197.64 115.006C197.091 115.409 196.116 115.397 196.243 116.622C196.275 116.937 194.862 117.454 194.075 117.791C190.96 119.118 187.836 120.423 184.705 121.715C181.727 122.947 178.825 124.474 175.736 125.306C170.161 126.801 165.51 130.071 160.452 132.564C158.909 133.326 157.258 133.878 155.753 134.704C155.099 135.062 154.445 135.793 154.216 136.494C152.407 142.034 150.756 147.629 148.933 153.166C148.194 155.414 147.178 157.576 146.228 159.751C144.987 162.592 139.415 164.596 137.167 163.551C135.961 162.989 134.792 161.57 135.046 160.392C135.973 156.134 136.916 151.88 137.986 147.657C138.52 145.552 139.339 143.517 140.031 141.453C139.237 141.244 138.516 141.057 137.612 140.818C137.91 140.32 138.056 139.999 138.266 139.729C139.456 138.205 140.732 136.742 141.837 135.161C142.479 134.246 142.904 133.17 143.342 132.132C145.031 128.154 146.638 124.137 148.378 120.185C149.051 118.657 149.664 116.806 150.892 115.889C153.404 114.016 153.42 111.38 153.947 108.793C153.239 108.586 152.515 108.374 151.515 108.078C152.527 106.634 153.274 105.288 154.286 104.183C155.89 102.43 155.493 100.214 155.848 98.2139C157.226 90.5019 157.334 82.6948 157.188 74.8844C157.185 74.6304 157.15 74.3764 157.122 74.0398C155.813 73.9097 154.578 73.7541 153.334 73.6684C151.699 73.5541 150.416 72.6302 150.175 71.3253C149.889 69.76 150.534 68.6234 152.346 68.0138C153.709 67.5566 155.163 67.3693 156.833 67.0073C156.817 63.4197 156.823 59.5335 158.623 55.5902L158.63 55.5807Z" fill="#6E5D6D"/>
<path d="M128.411 166.056C126.125 165.663 123.969 165.291 121.419 164.853C121.629 162.777 121.769 160.627 122.07 158.5C122.832 153.157 123.686 147.829 124.467 142.489C125.124 137.987 125.798 133.481 126.337 128.963C126.769 125.325 127.033 121.664 127.331 118.01C127.788 112.444 128.23 106.879 128.639 101.31C128.877 98.0395 129.036 94.7629 129.239 91.4927C129.347 89.7878 129.474 88.086 129.592 86.3842C129.452 86.3493 129.315 86.3112 129.176 86.2763C128.56 87.8384 127.909 89.3878 127.337 90.9657C126.039 94.5407 124.429 98.0554 123.623 101.741C123.026 104.475 121.442 106.561 120.4 108.977C118.559 113.247 116.755 117.534 114.952 121.823C113.279 125.804 111.733 129.843 109.948 133.777C106.783 140.749 103.538 147.686 100.195 154.576C99.2042 156.62 98.42 158.887 96.2451 160.176C94.6831 161.1 93.2036 161.234 92.0129 160.351C91.0001 159.598 90.5779 157.732 91.1303 156.182C91.9304 153.941 92.6098 151.633 93.6353 149.496C95.5689 145.467 97.7278 141.543 99.7693 137.564C101.166 134.84 102.506 132.084 103.906 129.357C106.678 123.95 109.647 118.639 112.202 113.133C114.307 108.603 115.908 103.84 117.774 99.1952C120.699 91.9277 123.496 84.6063 126.652 77.4436C129.166 71.7319 131.376 65.9154 133.303 59.9973C134.068 57.6446 135.729 56.4159 137.665 55.3714C138.961 54.6729 140.478 55.6794 140.288 57.1684C140.059 58.9559 139.577 60.7243 139.075 62.4642C137.538 67.7695 136.586 73.1479 136.497 78.6945C136.408 84.13 136.142 89.5624 135.875 94.9947C135.611 100.36 135.313 105.726 134.916 111.082C134.462 117.2 133.894 123.312 133.357 129.427C133.055 132.869 132.76 136.313 132.379 139.749C131.681 146.051 130.849 152.341 130.217 158.649C129.95 161.307 129.83 163.948 128.414 166.063L128.411 166.056Z" fill="#6E5D6D"/>
</svg>
