<svg width="187" height="53" viewBox="0 0 187 53" fill="none" xmlns="http://www.w3.org/2000/svg">
<g clip-path="url(#clip0_107_307)">
<path d="M7.95813 21.2462H0.719971V1.24139H7.84628C9.70509 1.24139 11.2017 1.69944 12.3415 2.6102C13.476 3.52096 14.0458 4.78324 14.0458 6.39705C14.0458 7.33444 13.8275 8.18129 13.3961 8.93227C12.9647 9.68325 12.3735 10.2638 11.6225 10.6792V10.7378C12.6717 11.0361 13.476 11.6326 14.0299 12.5114C14.5838 13.3955 14.8607 14.3702 14.8607 15.4408C14.8607 17.3368 14.2003 18.7802 12.8901 19.7655C11.5745 20.7509 9.93411 21.2462 7.95813 21.2462ZM10.3549 6.84977C10.3549 6.11477 10.1365 5.51824 9.70509 5.04422C9.25237 4.5915 8.62389 4.36781 7.81965 4.36781H4.35236V9.41162H7.87291C8.64519 9.41162 9.24704 9.17194 9.68911 8.69259C10.1312 8.21325 10.3495 7.60075 10.3495 6.84977H10.3549ZM10.3815 17.2996C10.8875 16.7723 11.1431 16.0799 11.1431 15.2171C11.1431 14.3542 10.8822 13.6831 10.3655 13.1452C9.84889 12.6126 9.14052 12.341 8.24041 12.341H4.35236V18.1144H8.24041C9.14052 18.1144 9.85422 17.8428 10.3815 17.2996Z" fill="white"/>
<path d="M32.5541 1.77933C33.6033 2.21074 34.4342 2.89781 35.0307 3.8352C35.6326 4.77259 35.9308 5.91237 35.9308 7.2439C35.9308 8.46357 35.6326 9.57673 35.0307 10.5834C34.4289 11.59 33.614 12.2984 32.5807 12.7085V12.7671C32.7512 12.9748 32.9642 13.321 33.2305 13.811L37.3423 21.2462H33.2571L29.3105 13.779H25.8166V21.2462H22.1842V1.24139H28.7779C30.4663 1.24139 31.7286 1.42248 32.5541 1.774V1.77933ZM28.469 4.37313H25.8219V10.626H29.0921C30.0668 10.626 30.8391 10.3384 31.4037 9.76846C31.9682 9.19325 32.2505 8.42096 32.2505 7.44629C32.2505 6.05618 31.7232 5.14542 30.674 4.714C30.168 4.49031 29.433 4.37846 28.4743 4.37846L28.469 4.37313Z" fill="white"/>
<path d="M52.8412 4.22936L55.7972 1.27338C57.5068 1.72609 58.9982 2.57827 60.2764 3.83523C62.2311 5.7686 63.1951 8.19197 63.1791 11.1053C63.1578 14.072 62.1832 16.5593 60.2498 18.5725C58.3164 20.5805 55.8451 21.5871 52.8412 21.5871C49.8373 21.5871 47.3606 20.5805 45.4166 18.5725C43.4726 16.5646 42.4979 14.072 42.4979 11.1053C42.4979 8.13871 43.4726 5.7899 45.4273 3.83523C46.6842 2.57827 48.1702 1.72077 49.8799 1.27338L52.8359 4.22936H52.8412ZM48.1383 16.2024C49.3792 17.5712 50.9451 18.2583 52.8412 18.2583C54.7373 18.2583 56.3085 17.5765 57.5601 16.2184C58.8064 14.8549 59.4349 13.1506 59.4349 11.1053C59.4349 9.06012 58.8117 7.51555 57.5601 6.20534C56.3085 4.88979 54.7373 4.23468 52.8412 4.23468C50.9451 4.23468 49.3739 4.88979 48.1223 6.20534C46.8706 7.52088 46.2475 9.15599 46.2475 11.1053C46.2475 13.0547 46.876 14.8549 48.1329 16.2024H48.1383Z" fill="white"/>
<path d="M74.0816 21.2462H70.4492V1.24139H74.0816L81.6606 12.7937C81.8843 13.1505 82.1347 13.5873 82.4063 14.1039C82.6779 14.6205 82.9016 15.0466 83.0667 15.3875L83.3224 15.8935H83.381C83.2478 14.6152 83.1839 13.5819 83.1839 12.7937V1.24139H86.7897V21.2462H83.1839L75.6049 9.72585C75.3812 9.36901 75.1309 8.93227 74.8592 8.41564C74.5876 7.89901 74.3639 7.47292 74.1988 7.13205L73.9431 6.62607H73.8845C74.0177 7.90433 74.0816 8.93759 74.0816 9.72585V21.2462Z" fill="white"/>
<path d="M98.9332 21.2462H95.3008V1.24139H98.9332L106.512 12.7937C106.736 13.1505 106.986 13.5873 107.258 14.1039C107.529 14.6205 107.753 15.0466 107.918 15.3875L108.174 15.8935H108.233C108.099 14.6152 108.035 13.5819 108.035 12.7937V1.24139H111.641V21.2462H108.035L100.456 9.72585C100.233 9.36901 99.9824 8.93227 99.7108 8.41564C99.4392 7.89901 99.2155 7.47292 99.0503 7.13205L98.7947 6.62607H98.7361C98.8693 7.90433 98.9332 8.93759 98.9332 9.72585V21.2462Z" fill="white"/>
<path d="M120.147 21.2462V1.24139H123.779V21.2462H120.147Z" fill="white"/>
<path d="M130.234 4.37313V1.24139H146.969V4.37313H140.402V21.2515H136.796V4.37313H130.229H130.234Z" fill="white"/>
<path d="M159.448 9.55543C160.348 9.91227 161.259 10.3117 162.18 10.7538C163.102 11.1959 163.879 11.8297 164.519 12.6552C165.158 13.4808 165.477 14.4874 165.477 15.6698C165.477 17.3581 164.886 18.7696 163.704 19.8934C162.521 21.0172 160.897 21.5817 158.83 21.5817C157.552 21.5817 156.311 21.3474 155.113 20.8787C153.909 20.41 152.87 19.7336 151.986 18.8495L153.957 16.1172C154.612 16.6977 155.39 17.1984 156.279 17.6085C157.169 18.0239 158.047 18.2263 158.916 18.2263C159.784 18.2263 160.529 18.0133 161.057 17.5925C161.584 17.1717 161.845 16.6178 161.845 15.9467C161.845 15.2756 161.525 14.6525 160.886 14.1412C160.247 13.6299 159.475 13.1931 158.564 12.815C157.653 12.4368 156.737 12.0267 155.816 11.574C154.894 11.1213 154.117 10.4875 153.478 9.65662C152.838 8.83108 152.519 7.84575 152.519 6.70064C152.519 4.97499 153.163 3.57423 154.447 2.50368C155.736 1.43314 157.366 0.895203 159.336 0.895203C161.685 0.895203 163.64 1.6089 165.195 3.03629L163.587 5.99227C163.022 5.48629 162.34 5.06553 161.547 4.74064C160.748 4.41042 159.965 4.24531 159.193 4.24531C158.271 4.24531 157.536 4.45303 156.982 4.86314C156.428 5.27857 156.151 5.83249 156.151 6.52488C156.151 7.21727 156.471 7.78184 157.11 8.27184C157.749 8.76184 158.527 9.1826 159.448 9.53945V9.55543Z" fill="white"/>
<path d="M178.521 9.81107H178.579C178.974 8.85238 179.378 7.96292 179.788 7.13205L182.888 1.24139H187L180.353 12.8789V21.2462H176.747V12.8789L170.068 1.24139H174.18L177.307 7.13205L178.516 9.81107H178.521Z" fill="white"/>
<path d="M26.7539 49.1496C27.5262 49.1496 28.1547 48.9046 28.6393 48.4146C29.1293 47.9246 29.3743 47.1736 29.3743 46.1617V35.2592H24.1921V32.1328H32.9801V46.2203C32.9801 48.2655 32.3623 49.8207 31.1373 50.8806C29.907 51.9405 28.4476 52.4731 26.7539 52.4731C25.0602 52.4731 23.5796 51.9405 22.3599 50.8646C21.1402 49.7941 20.5277 48.2442 20.5277 46.2149V45.0592H24.1335V45.9912C24.1335 46.8913 24.3518 47.6423 24.7833 48.2442C25.2147 48.846 25.8698 49.1443 26.7539 49.1443V49.1496Z" fill="white"/>
<path d="M44.9265 40.5054H51.6587V43.6318H44.9265V49.0111H53.7146V52.1375H41.2888V32.1328H53.2619V35.2592H44.9212V40.5L44.9265 40.5054Z" fill="white"/>
<path d="M68.2815 52.1375H64.1378L59.1526 32.1328H62.9554L66.0552 45.9646L66.3907 48.0791H66.4493C66.5239 47.4399 66.6677 46.7369 66.8701 45.9646L70.4492 32.1328H73.4904L77.0429 45.9646L77.4637 48.0791H77.5223C77.5596 47.424 77.6607 46.7156 77.8312 45.9646L81.1547 32.1328H84.9042L79.7219 52.1375H75.6368L72.5104 40.303L72.0044 37.6825H71.9192C71.7861 38.5667 71.6103 39.4401 71.3866 40.303L68.2868 52.1375H68.2815Z" fill="white"/>
<path d="M95.1303 40.5054H101.862V43.6318H95.1303V49.0111H103.918V52.1375H91.4926V32.1328H103.466V35.2592H95.125V40.5L95.1303 40.5054Z" fill="white"/>
<path d="M111.13 32.1328H114.762V49.0111H123.412V52.1375H111.13V32.1328Z" fill="white"/>
<path d="M140.232 32.6707C141.281 33.1021 142.112 33.7892 142.708 34.7266C143.31 35.6639 143.608 36.8037 143.608 38.1353C143.608 39.3549 143.31 40.4681 142.708 41.4747C142.106 42.4813 141.291 43.1897 140.258 43.5998V43.6584C140.429 43.8661 140.642 44.2123 140.908 44.7023L145.02 52.1375H140.935L136.988 44.6704H133.494V52.1375H129.862V32.1328H136.455C138.144 32.1328 139.406 32.3138 140.232 32.6654V32.6707ZM136.146 35.2645H133.499V41.5173H136.77C137.744 41.5173 138.517 41.2297 139.081 40.6598C139.646 40.0846 139.928 39.3123 139.928 38.3376C139.928 36.9475 139.401 36.0368 138.351 35.6054C137.846 35.3817 137.111 35.2698 136.152 35.2698L136.146 35.2645Z" fill="white"/>
<path d="M156.972 40.7024H157.03C157.424 39.7437 157.829 38.8543 158.239 38.0234L161.339 32.1328H165.451L158.804 43.7703V52.1375H155.198V43.7703L148.519 32.1328H152.631L155.757 38.0234L156.966 40.7024H156.972Z" fill="white"/>
</g>
<defs>
<clipPath id="clip0_107_307">
<rect width="186.28" height="51.5725" fill="white" transform="translate(0.719971 0.905884)"/>
</clipPath>
</defs>
</svg>
