<svg width="194" height="13" viewBox="0 0 194 13" fill="none" xmlns="http://www.w3.org/2000/svg">
<g clip-path="url(#clip0_107_273)">
<path d="M4.17089 11.8537H0V0.326241H4.10644C5.17755 0.326241 6.03996 0.590182 6.69674 1.115C7.35046 1.63981 7.67885 2.36718 7.67885 3.29712C7.67885 3.83727 7.55302 4.32526 7.30442 4.758C7.05583 5.19074 6.71516 5.52527 6.28242 5.76466V5.79842C6.88703 5.97029 7.35046 6.31403 7.66965 6.82043C7.98883 7.3299 8.14842 7.89154 8.14842 8.50842C8.14842 9.60102 7.76786 10.4327 7.01286 11.0005C6.2548 11.5683 5.30952 11.8537 4.17089 11.8537ZM5.55198 3.55799C5.55198 3.13445 5.42614 2.79072 5.17755 2.51757C4.91668 2.2567 4.55452 2.12779 4.09109 2.12779H2.09312V5.03422H4.12178C4.5668 5.03422 4.91361 4.89611 5.16834 4.61989C5.42307 4.34367 5.54891 3.99073 5.54891 3.55799H5.55198ZM5.56732 9.57953C5.85888 9.27569 6.0062 8.87671 6.0062 8.37952C6.0062 7.88233 5.85582 7.49563 5.55811 7.18565C5.26041 6.87874 4.85222 6.72222 4.33355 6.72222H2.09312V10.0491H4.33355C4.85222 10.0491 5.26348 9.89258 5.56732 9.57953Z" fill="white"/>
<path d="M18.0369 0.636218C18.6415 0.884814 19.1203 1.28073 19.464 1.82089C19.8108 2.36104 19.9827 3.01783 19.9827 3.7851C19.9827 4.48792 19.8108 5.12936 19.464 5.70942C19.1172 6.28947 18.6477 6.69766 18.0523 6.93398V6.96774C18.1505 7.08744 18.2732 7.28693 18.4267 7.56928L20.796 11.8537H18.442L16.1678 7.55087H14.1545V11.8537H12.0614V0.326241H15.8609C16.8338 0.326241 17.5612 0.430589 18.0369 0.633149V0.636218ZM15.6829 2.13086H14.1576V5.73397H16.042C16.6036 5.73397 17.0487 5.56824 17.374 5.23985C17.6993 4.90839 17.862 4.46337 17.862 3.90173C17.862 3.10069 17.5581 2.57588 16.9535 2.32728C16.662 2.19838 16.2384 2.13393 15.686 2.13393L15.6829 2.13086Z" fill="white"/>
<path d="M29.4172 2.048L31.1205 0.344658C32.1057 0.60553 32.9651 1.09658 33.7016 1.82089C34.828 2.93497 35.3835 4.3314 35.3743 6.01019C35.362 7.71967 34.8004 9.15294 33.6863 10.3131C32.5722 11.4701 31.1482 12.0502 29.4172 12.0502C27.6862 12.0502 26.2591 11.4701 25.1389 10.3131C24.0187 9.156 23.457 7.72274 23.457 6.01019C23.457 4.29764 24.0187 2.94724 25.145 1.82089C25.8693 1.09658 26.7256 0.602461 27.7108 0.344658L29.4141 2.048H29.4172ZM26.7072 8.94731C27.4223 9.73606 28.3246 10.132 29.4172 10.132C30.5098 10.132 31.4152 9.73913 32.1364 8.95651C32.8546 8.17083 33.2167 7.18872 33.2167 6.01019C33.2167 4.83166 32.8576 3.94163 32.1364 3.18663C31.4152 2.42857 30.5098 2.05107 29.4172 2.05107C28.3246 2.05107 27.4192 2.42857 26.698 3.18663C25.9767 3.9447 25.6177 4.88691 25.6177 6.01019C25.6177 7.13348 25.9798 8.17083 26.7041 8.94731H26.7072Z" fill="white"/>
<path d="M41.35 11.8537H39.2568V0.326241H41.35L45.7173 6.98309C45.8462 7.18872 45.9904 7.44038 46.1469 7.73808C46.3035 8.03578 46.4324 8.28131 46.5275 8.47773L46.6748 8.7693H46.7086C46.6319 8.03271 46.595 7.43731 46.595 6.98309V0.326241H48.6728V11.8537H46.595L42.2277 5.21529C42.0988 5.00967 41.9546 4.758 41.798 4.4603C41.6415 4.1626 41.5126 3.91707 41.4175 3.72065L41.2702 3.42909H41.2364C41.3131 4.16567 41.35 4.76107 41.35 5.21529V11.8537Z" fill="white"/>
<path d="M55.3601 11.8537H53.267V0.326241H55.3601L59.7274 6.98309C59.8563 7.18872 60.0005 7.44038 60.1571 7.73808C60.3136 8.03578 60.4425 8.28131 60.5376 8.47773L60.6849 8.7693H60.7187C60.642 8.03271 60.6052 7.43731 60.6052 6.98309V0.326241H62.6829V11.8537H60.6052L56.2378 5.21529C56.1089 5.00967 55.9647 4.758 55.8082 4.4603C55.6516 4.1626 55.5227 3.91707 55.4276 3.72065L55.2803 3.42909H55.2465C55.3233 4.16567 55.3601 4.76107 55.3601 5.21529V11.8537Z" fill="white"/>
<path d="M67.2743 11.8537V0.326241H69.3674V11.8537H67.2743Z" fill="white"/>
<path d="M72.7772 2.13086V0.326241H82.4203V2.13086H78.6361V11.8537H76.5584V2.13086H72.7742H72.7772Z" fill="white"/>
<path d="M89.3043 5.11708C89.823 5.32271 90.3478 5.55289 90.8787 5.80763C91.4097 6.06236 91.8578 6.42758 92.2261 6.90329C92.5944 7.379 92.7785 7.95906 92.7785 8.64039C92.7785 9.61329 92.4378 10.4266 91.7565 11.0742C91.0752 11.7248 90.1391 12.0471 88.9483 12.0471C88.2117 12.0471 87.4966 11.912 86.8061 11.642C86.1155 11.3719 85.514 10.9821 85.0045 10.4726L86.1401 8.8982C86.5176 9.23273 86.9657 9.52122 87.4782 9.75754C87.9907 9.99693 88.4971 10.1136 88.9974 10.1136C89.4977 10.1136 89.9273 9.99079 90.2312 9.74833C90.535 9.50588 90.6854 9.18669 90.6854 8.79998C90.6854 8.41328 90.5012 8.0542 90.133 7.75957C89.7647 7.46493 89.3197 7.21327 88.7948 6.99536C88.27 6.77746 87.7421 6.54114 87.2112 6.28027C86.6802 6.01939 86.2321 5.65417 85.8639 5.17539C85.4956 4.69969 85.3114 4.13191 85.3114 3.47205C85.3114 2.47767 85.6828 1.6705 86.4224 1.05361C87.1652 0.436725 88.1043 0.126747 89.2399 0.126747C90.5933 0.126747 91.7197 0.538005 92.6158 1.36052L91.689 3.06386C91.3637 2.7723 90.9708 2.52984 90.5135 2.34263C90.0532 2.15234 89.602 2.0572 89.157 2.0572C88.626 2.0572 88.2025 2.1769 87.8833 2.41322C87.5641 2.65261 87.4045 2.97179 87.4045 3.37077C87.4045 3.76975 87.5887 4.09508 87.957 4.37743C88.3253 4.65979 88.7734 4.90225 89.3043 5.10787V5.11708Z" fill="white"/>
<path d="M99.9878 5.2644H100.022C100.249 4.71196 100.482 4.19943 100.718 3.72065L102.504 0.326241H104.874L101.044 7.03219V11.8537H98.9658V7.03219L95.1172 0.326241H97.4865L99.2881 3.72065L99.9848 5.2644H99.9878Z" fill="white"/>
<path d="M115.932 10.132C116.377 10.132 116.739 9.99079 117.018 9.70844C117.3 9.42608 117.442 8.99334 117.442 8.41021V2.13086H114.455V0.326241H119.519V8.44397C119.519 9.6225 119.163 10.5187 118.457 11.1294C117.749 11.7402 116.908 12.0471 115.932 12.0471C114.956 12.0471 114.102 11.7402 113.4 11.1233C112.697 10.5064 112.344 9.6133 112.344 8.44397V7.77798H114.422V8.31507C114.422 8.83375 114.547 9.26649 114.796 9.61329C115.045 9.9601 115.422 10.132 115.932 10.132Z" fill="white"/>
<path d="M126.094 5.15084H129.973V6.9524H126.094V10.0522H131.157V11.8537H123.997V0.326241H130.897V2.13086H126.09V5.15084H126.094Z" fill="white"/>
<path d="M139.241 11.8537H136.854L133.984 0.326241H136.175L137.962 8.29666L138.155 9.51508H138.189C138.232 9.14679 138.314 8.74167 138.431 8.29666L140.494 0.326241H142.246L144.293 8.29666L144.536 9.51508H144.569C144.591 9.13759 144.649 8.7294 144.747 8.29666L146.662 0.326241H148.823L145.837 11.8537H143.483L141.681 5.03422L141.39 3.52423H141.341C141.264 4.0337 141.163 4.53703 141.034 5.03422L139.247 11.8537H139.241Z" fill="white"/>
<path d="M154.406 5.15084H158.285V6.9524H154.406V10.0522H159.47V11.8537H152.31V0.326241H159.209V2.13086H154.403V5.15084H154.406Z" fill="white"/>
<path d="M163.318 0.326241H165.411V10.0522H170.396V11.8537H163.318V0.326241Z" fill="white"/>
<path d="M179.781 0.636218C180.386 0.884814 180.864 1.28073 181.208 1.82089C181.555 2.36104 181.727 3.01783 181.727 3.7851C181.727 4.48792 181.555 5.12936 181.208 5.70942C180.861 6.28947 180.392 6.69766 179.796 6.93398V6.96774C179.895 7.08744 180.017 7.28693 180.171 7.56928L182.54 11.8537H180.186L177.912 7.55087H175.899V11.8537H173.806V0.326241H177.605C178.578 0.326241 179.305 0.430589 179.781 0.633149V0.636218ZM177.427 2.13086H175.902V5.73397H177.786C178.348 5.73397 178.793 5.56824 179.118 5.23985C179.443 4.90839 179.606 4.46337 179.606 3.90173C179.606 3.10069 179.302 2.57588 178.698 2.32728C178.406 2.19838 177.983 2.13393 177.43 2.13393L177.427 2.13086Z" fill="white"/>
<path d="M189.114 5.2644H189.148C189.375 4.71196 189.608 4.19943 189.844 3.72065L191.631 0.326241H194L190.17 7.03219V11.8537H188.092V7.03219L184.243 0.326241H186.613L188.414 3.72065L189.111 5.2644H189.114Z" fill="white"/>
</g>
<defs>
<clipPath id="clip0_107_273">
<rect width="194" height="11.9173" fill="white" transform="translate(0 0.132889)"/>
</clipPath>
</defs>
</svg>
