<svg width="81" height="133" viewBox="0 0 81 133" fill="none" xmlns="http://www.w3.org/2000/svg">
<path d="M90.689 180.79C90.851 179.984 91.0129 179.18 91.0827 178.828C90.3493 177.555 89.4572 176.615 89.2444 175.539C87.7395 167.957 83.8026 161.528 79.5513 155.321C76.7415 151.219 73.3888 147.482 70.2043 143.643C67.7183 140.649 65.2419 137.63 62.5368 134.836C59.3238 131.515 55.8662 128.426 52.5262 125.228C51.1959 123.952 49.9005 122.641 48.5734 121.361C46.9097 119.758 45.227 118.171 43.357 116.393C41.9346 118.437 40.4646 120.263 39.3089 122.269C36.5562 127.051 34.0258 131.956 31.2668 136.734C29.6317 139.566 29.2348 142.726 28.5014 145.789C27.9553 148.075 26.9171 150.057 25.5963 151.92C24.6248 153.292 22.5293 153.663 20.9768 152.879C19.5322 152.152 18.8559 150.041 19.3385 148.218C20.5101 143.818 21.7038 139.42 22.7198 134.982C23.7136 130.642 24.4343 126.238 25.3931 121.888C26.7774 115.599 28.276 109.335 29.7079 103.055C29.7872 102.705 29.7174 102.321 29.5078 101.864C28.2474 104.614 26.9901 107.36 25.7265 110.109C22.1864 117.824 18.6559 125.543 15.0841 133.242C14.8142 133.826 14.2586 134.28 13.8331 134.791C13.6998 134.95 13.4458 135.077 13.4236 135.242C12.941 138.516 10.8455 140.957 9.07708 143.542C8.25795 144.738 7.20069 145.827 6.07358 146.748C4.48928 148.037 2.01601 146.659 1.1429 144.465C-0.590619 140.122 0.485673 135.957 1.56515 131.75C4.56865 120.022 7.61978 108.303 10.5439 96.5524C11.7948 91.5169 12.5505 86.3481 13.9347 81.3539C15.4746 75.8073 17.4716 70.3876 19.2909 64.9172C19.3988 64.5965 19.6814 64.3298 20.0529 63.7933C20.1291 64.7362 20.1799 65.3934 20.2656 66.4507C20.8212 65.0855 21.4022 64.2822 20.9863 63.0027C20.7672 62.3296 21.5864 61.2501 22.069 60.4342C22.6373 59.4753 23.4913 59.9389 24.374 59.8754C26.6536 59.7103 26.5139 61.2216 27.0663 62.4725C27.2536 62.8979 28.1426 62.9773 28.4411 63.4028C29.2634 64.5711 30.273 65.7586 30.6064 67.0857C31.3493 70.0447 31.9843 73.08 32.1748 76.1121C32.359 79.014 31.9653 81.9571 30.127 84.4622C29.1523 85.7925 27.6315 85.948 26.8409 84.5003C26.0884 83.1223 25.5614 81.5253 25.3519 79.9696C24.9613 77.0645 24.8851 74.1182 24.6534 71.1877C24.6311 70.8956 24.4406 70.6162 23.9644 70.2416C22.8214 73.4832 21.5959 76.6994 20.5577 79.976C19.5226 83.2462 18.6051 86.5608 17.7669 89.885C17.0113 92.8758 16.4334 95.9078 15.7762 98.9209C14.8555 103.134 14.03 107.369 12.9886 111.551C11.7028 116.72 10.1439 121.822 8.88658 126.994C8.33731 129.254 8.24525 131.626 8.12778 134.099C8.86437 132.988 9.72476 131.94 10.3185 130.759C13.8046 123.8 17.3002 116.843 20.6529 109.82C23.7771 103.28 26.6377 96.6159 29.7746 90.0818C33.3527 82.6366 35.9657 74.9183 37.7246 66.8317C39.6835 57.8085 42.0838 48.8806 44.3158 39.9177C45.9064 33.5265 47.4939 27.1322 49.1766 20.7664C49.5322 19.4171 50.4149 18.2138 50.8467 16.8771C51.234 15.6802 51.3388 14.3943 51.5547 13.1434C51.5864 12.9561 51.4562 12.7179 51.5261 12.5624C53.2247 8.88895 53.7612 4.59008 57.1648 1.84693C57.9458 1.21829 58.9809 0.910317 59.8984 0.453125H60.8509C61.2129 0.72617 61.6034 0.970641 61.9367 1.27861C63.9592 3.14548 65.6324 5.11712 65.6451 8.16189C65.6641 12.5878 63.9973 16.5501 62.4733 20.5188C59.8349 27.383 56.8917 34.1266 54.1772 40.9622C50.9451 49.1028 47.8146 57.2846 44.6619 65.4569C43.6713 68.0255 42.5473 70.5718 41.8457 73.2229C40.9313 76.6804 40.3693 80.23 39.6677 83.7414C39.2803 85.6877 38.9216 87.6371 38.5088 89.7929C40.0455 89.3198 41.271 89.0531 42.4045 88.5705C49.3417 85.6115 56.2663 82.627 63.1718 79.6013C66.8897 77.9726 70.5694 76.2549 74.2492 74.5436C77.0749 73.2292 80.0022 72.0735 82.6533 70.467C86.0377 68.4128 89.1238 65.8792 92.467 63.7457C94.0545 62.7328 95.9309 62.1741 97.6771 61.4121V70.9369C97.5215 70.9528 97.3501 70.9305 97.2135 70.9909C93.9402 72.5021 90.6763 74.0388 87.3966 75.5406C85.1869 76.5534 82.631 77.1122 80.7991 78.5822C74.6937 83.4811 68.7724 88.6182 62.9305 93.8346C60.181 96.2888 57.7141 99.0701 55.2376 101.81C52.758 104.55 50.4244 107.423 48.0019 110.268C48.4146 110.706 48.6845 111.024 48.9861 111.313C53.7295 115.859 58.511 120.371 63.2131 124.959C65.5594 127.248 67.7627 129.686 70.0424 132.042C77.9353 140.195 85.4821 148.631 91.3208 158.432C93.5909 162.242 95.6134 166.188 96.7659 170.513C97.0866 171.713 97.3691 172.919 97.6707 174.123V174.44C97.2675 175.196 96.7278 175.916 96.4992 176.723C96.2896 177.459 96.5532 178.333 96.3373 179.066C96.1722 179.628 95.5848 180.063 95.1879 180.555C95.0609 180.45 94.9339 180.346 94.8069 180.241C94.9752 179.625 95.1467 179.012 95.3149 178.396C95.2102 178.329 95.1054 178.26 95.0038 178.193C94.3244 178.98 93.6481 179.768 92.9686 180.555C92.8734 180.485 92.7781 180.412 92.6861 180.342C92.721 179.952 92.7559 179.564 92.794 179.152C92.2543 179.755 91.7907 180.272 91.324 180.787H90.689V180.79ZM61.4351 87.4815C60.8573 87.7482 59.8445 88.2403 58.8094 88.6848C55.6948 90.0215 52.5865 91.3645 49.4465 92.6408C48.6432 92.9678 48.1321 94.168 46.8557 93.4123C46.5827 93.2504 45.6651 94.3712 44.954 94.7204C42.9029 95.7237 40.8202 96.6698 38.7184 97.562C37.5944 98.0382 37.3563 98.597 38.1977 99.5432C39.9788 101.547 41.8044 103.515 43.4776 105.604C44.138 106.43 44.4904 106.265 45.0397 105.649C46.0557 104.509 47.0589 103.356 48.1289 102.27C48.3607 102.035 48.8496 102.055 49.2211 101.956C49.9323 101.502 50.4942 100.762 51.0499 100.016C52.6532 97.8668 54.482 95.9205 55.952 93.6314C57.4855 91.2407 59.7555 89.323 61.4383 87.4847L61.4351 87.4815ZM39.6169 112.624C38.2644 111.173 36.9721 109.782 35.6768 108.395C35.4831 108.506 35.2863 108.614 35.0926 108.725C34.3052 113.23 33.5178 117.732 32.7304 122.238C32.8542 122.279 32.9812 122.32 33.1051 122.365C35.2545 119.148 37.4071 115.929 39.6169 112.624ZM52.0595 33.2249C55.2471 25.0748 59.3841 17.1946 59.7587 8.15237C55.4535 15.9596 54.6979 24.8716 52.0595 33.2249Z" fill="white"/>
</svg>
